<svg width="42" height="30" viewBox="0 0 42 30" fill="none" xmlns="http://www.w3.org/2000/svg">
<g id="icon">
<path id="Vector" d="M40.405 4.85864C39.9295 3.09349 38.5332 1.70635 36.7565 1.23385C33.5396 0.376587 20.6339 0.376587 20.6339 0.376587C20.6339 0.376587 7.72838 0.376587 4.51133 1.23385C2.73467 1.70635 1.33846 3.09349 0.862862 4.85864C2.58287e-07 8.05479 0 14.7272 0 14.7272C0 14.7272 2.58287e-07 21.3997 0.862862 24.5959C1.33846 26.361 2.73467 27.7482 4.51133 28.2206C7.72838 29.0779 20.6339 29.0779 20.6339 29.0779C20.6339 29.0779 33.5396 29.0779 36.7565 28.2206C38.5332 27.7482 39.9295 26.361 40.405 24.5959C41.2679 21.3997 41.2679 14.7272 41.2679 14.7272C41.2679 14.7272 41.2645 8.05479 40.405 4.85864Z" fill="#FF0000"/>
<path id="Vector_2" d="M16.5034 20.877L27.2247 14.7278L16.5034 8.57843V20.877Z" fill="white"/>
</g>
</svg>
