<svg width="85" height="27" viewBox="0 0 85 27" fill="none" xmlns="http://www.w3.org/2000/svg">
<g id="youtube-paths">
<path id="Vector" d="M4.98129 18.0376L0.347656 1.41217H4.39022L6.01407 8.94862C6.42848 10.8049 6.7308 12.3878 6.92782 13.6973H7.0467C7.18262 12.759 7.48841 11.1863 7.9606 8.97562L9.64208 1.41217H13.6846L8.99324 18.0376V26.0128H4.97797V18.0376H4.98129Z" fill="white"/>
<path id="Vector_2" d="M14.9006 25.4857C14.0853 24.9389 13.5044 24.0884 13.1578 22.9342C12.8148 21.7799 12.6416 20.2477 12.6416 18.3306V15.7217C12.6416 13.7878 12.8386 12.2319 13.2327 11.0608C13.6267 9.88968 14.2416 9.03241 15.0772 8.49578C15.913 7.95916 17.0102 7.68915 18.3691 7.68915C19.7075 7.68915 20.7776 7.96253 21.586 8.50929C22.3912 9.05603 22.9822 9.9133 23.3559 11.0743C23.7296 12.2387 23.9165 13.7878 23.9165 15.7217V18.3306C23.9165 20.2477 23.7331 21.7867 23.3696 22.9476C23.0061 24.1121 22.415 24.9626 21.5996 25.4992C20.7844 26.0359 19.6769 26.3058 18.2807 26.3058C16.8403 26.3091 15.716 26.0325 14.9006 25.4857ZM19.4731 22.671C19.6973 22.0837 19.8128 21.1286 19.8128 19.7988V14.1996C19.8128 12.9103 19.7007 11.9653 19.4731 11.3713C19.2455 10.7739 18.8481 10.4769 18.2772 10.4769C17.7271 10.4769 17.3363 10.7739 17.1122 11.3713C16.8845 11.9687 16.7724 12.9103 16.7724 14.1996V19.7988C16.7724 21.1286 16.881 22.087 17.0986 22.671C17.316 23.2582 17.7065 23.5518 18.2772 23.5518C18.8481 23.5518 19.2455 23.2582 19.4731 22.671Z" fill="white"/>
<path id="Vector_3" d="M37.0669 26.0163H33.8805L33.5272 23.8157H33.4389C32.5725 25.4762 31.2748 26.3064 29.5424 26.3064C28.3432 26.3064 27.4566 25.9149 26.8859 25.1354C26.3152 24.3523 26.0298 23.1306 26.0298 21.4701V8.04079H30.103V21.2338C30.103 22.0371 30.1912 22.6074 30.3679 22.9484C30.5445 23.2892 30.8401 23.4613 31.2545 23.4613C31.6078 23.4613 31.9475 23.3533 32.2737 23.1374C32.5998 22.9212 32.8376 22.6479 32.9972 22.3172V8.03741H37.0669V26.0163Z" fill="white"/>
<path id="Vector_4" d="M48.1314 4.66851H44.0889V26.0156H40.1041V4.66851H36.0615V1.41498H48.1314V4.66851Z" fill="white"/>
<path id="Vector_5" d="M57.9556 26.0163H54.7692L54.4158 23.8157H54.3276C53.4614 25.4762 52.1637 26.3064 50.4311 26.3064C49.2319 26.3064 48.3453 25.9149 47.7746 25.1354C47.2039 24.3523 46.9185 23.1306 46.9185 21.4701V8.04079H50.9916V21.2338C50.9916 22.0371 51.0799 22.6074 51.2566 22.9484C51.4332 23.2892 51.7287 23.4613 52.1433 23.4613C52.4965 23.4613 52.8362 23.3533 53.1624 23.1374C53.4885 22.9212 53.7263 22.6479 53.8859 22.3172V8.03741H57.9556V26.0163Z" fill="white"/>
<path id="Vector_6" d="M71.4352 10.9126C71.1872 9.77863 70.7897 8.95849 70.2395 8.44886C69.6891 7.93924 68.9315 7.6861 67.9668 7.6861C67.2194 7.6861 66.5196 7.89535 65.8707 8.31723C65.2219 8.73911 64.7191 9.28924 64.3658 9.97437H64.3353V0.504028H60.4116V26.0125H63.7747L64.1891 24.3115H64.2775C64.5934 24.919 65.0656 25.3949 65.6941 25.7493C66.3226 26.1004 67.0224 26.2759 67.7901 26.2759C69.166 26.2759 70.1817 25.6447 70.8305 24.3857C71.4794 23.1235 71.8054 21.1558 71.8054 18.4761V15.631C71.8054 13.6228 71.6797 12.0467 71.4352 10.9126ZM67.7017 18.2465C67.7017 19.556 67.6474 20.5821 67.5386 21.3246C67.43 22.0671 67.2499 22.5971 66.9918 22.9075C66.737 23.2213 66.3905 23.3766 65.959 23.3766C65.6227 23.3766 65.3136 23.299 65.0282 23.1404C64.7429 22.9851 64.512 22.7489 64.3353 22.4384V12.2356C64.4711 11.7463 64.709 11.348 65.0453 11.0341C65.3782 10.7203 65.7451 10.565 66.1357 10.565C66.5502 10.565 66.8694 10.727 67.0938 11.0476C67.3213 11.3716 67.4775 11.9117 67.5659 12.6744C67.6542 13.4372 67.6984 14.5205 67.6984 15.9279V18.2465H67.7017Z" fill="white"/>
<path id="Vector_7" d="M77.5839 19.2827C77.5839 20.4369 77.6178 21.3009 77.6858 21.8781C77.7537 22.4552 77.8964 22.8738 78.1138 23.1404C78.3312 23.4036 78.6642 23.5352 79.116 23.5352C79.7241 23.5352 80.1453 23.299 80.3695 22.8298C80.5971 22.3607 80.7195 21.5778 80.7398 20.4842L84.2524 20.69C84.2728 20.8453 84.2829 21.0613 84.2829 21.3347C84.2829 22.9952 83.8243 24.2372 82.9105 25.0574C81.9968 25.8775 80.7024 26.2892 79.0311 26.2892C77.0234 26.2892 75.617 25.6648 74.8118 24.4127C74.0034 23.1606 73.6025 21.2267 73.6025 18.6076V15.4688C73.6025 12.7722 74.0204 10.8012 74.856 9.5592C75.6918 8.31718 77.1219 7.69617 79.1499 7.69617C80.5461 7.69617 81.6196 7.9493 82.367 8.45893C83.1144 8.96855 83.6409 9.75831 83.9466 10.835C84.2524 11.9116 84.4053 13.3966 84.4053 15.2933V18.3714H77.5839V19.2827ZM78.1003 10.8113C77.893 11.0645 77.7572 11.4796 77.6858 12.0567C77.6178 12.6339 77.5839 13.508 77.5839 14.6826V15.9718H80.5632V14.6826C80.5632 13.5282 80.5224 12.6541 80.4443 12.0567C80.3662 11.4593 80.2234 11.0408 80.0162 10.7945C79.809 10.5515 79.4897 10.4266 79.0582 10.4266C78.6234 10.43 78.3041 10.5582 78.1003 10.8113Z" fill="white"/>
</g>
</svg>
